<?xml version="1.0" encoding="UTF-8"?>
<svg width="200px" height="200px" viewBox="0 0 200 200" version="1.1" xmlns="http://www.w3.org/2000/svg">
    <g stroke="none" stroke-width="1" fill="none" fill-rule="evenodd">
        <circle fill="#F5F5F5" cx="100" cy="100" r="100"/>
        <path d="M100,60 C122.09139,60 140,77.90861 140,100 C140,122.09139 122.09139,140 100,140 C77.90861,140 60,122.09139 60,100 C60,77.90861 77.90861,60 100,60 Z M100,70 C83.4314575,70 70,83.4314575 70,100 C70,116.568542 83.4314575,130 100,130 C116.568542,130 130,116.568542 130,100 C130,83.4314575 116.568542,70 100,70 Z" fill="#E0E0E0"/>
        <path d="M85,95 C88.3137085,95 91,97.6862915 91,101 C91,104.313708 88.3137085,107 85,107 C81.6862915,107 79,104.313708 79,101 C79,97.6862915 81.6862915,95 85,95 Z M115,95 C118.313708,95 121,97.6862915 121,101 C121,104.313708 118.313708,107 115,107 C111.686292,107 109,104.313708 109,101 C109,97.6862915 111.686292,95 115,95 Z" fill="#BDBDBD"/>
        <path d="M100,120 C108.284271,120 115,126.715729 115,135" stroke="#BDBDBD" stroke-width="6" stroke-linecap="round"/>
    </g>
</svg> 